<mxfile host="app.diagrams.net" modified="2023-10-29T08:29:59.352Z" agent="Mozilla/5.0 (Windows NT 10.0; Win64; x64) AppleWebKit/537.36 (KHTML, like Gecko) Chrome/117.0.0.0 Safari/537.36" etag="RU617eJNRsbmXoJnB-xd" version="22.0.8" type="github">
  <diagram name="第 1 页" id="JsuRSika-t90Lc20TqCF">
    <mxGraphModel dx="1050" dy="542" grid="1" gridSize="10" guides="1" tooltips="1" connect="1" arrows="1" fold="1" page="1" pageScale="1" pageWidth="827" pageHeight="1169" math="0" shadow="0">
      <root>
        <mxCell id="0" />
        <mxCell id="1" parent="0" />
        <mxCell id="qX0B5N5q_6ZyjdF8FuY2-8" style="edgeStyle=orthogonalEdgeStyle;rounded=0;orthogonalLoop=1;jettySize=auto;html=1;exitX=0.25;exitY=0;exitDx=0;exitDy=0;entryX=0.25;entryY=1;entryDx=0;entryDy=0;" edge="1" parent="1" source="qX0B5N5q_6ZyjdF8FuY2-2" target="qX0B5N5q_6ZyjdF8FuY2-7">
          <mxGeometry relative="1" as="geometry" />
        </mxCell>
        <mxCell id="qX0B5N5q_6ZyjdF8FuY2-2" value="" style="rounded=0;whiteSpace=wrap;html=1;direction=south;" vertex="1" parent="1">
          <mxGeometry x="40" y="530" width="180" height="480" as="geometry" />
        </mxCell>
        <mxCell id="qX0B5N5q_6ZyjdF8FuY2-3" value="教师边界" style="text;html=1;strokeColor=none;fillColor=none;align=center;verticalAlign=middle;whiteSpace=wrap;rounded=0;" vertex="1" parent="1">
          <mxGeometry x="90" y="500" width="60" height="30" as="geometry" />
        </mxCell>
        <mxCell id="qX0B5N5q_6ZyjdF8FuY2-4" value="学生信息边界" style="rounded=0;whiteSpace=wrap;html=1;" vertex="1" parent="1">
          <mxGeometry x="70" y="580" width="120" height="60" as="geometry" />
        </mxCell>
        <mxCell id="qX0B5N5q_6ZyjdF8FuY2-5" value="登录边界" style="rounded=0;whiteSpace=wrap;html=1;" vertex="1" parent="1">
          <mxGeometry x="70" y="690" width="120" height="60" as="geometry" />
        </mxCell>
        <mxCell id="qX0B5N5q_6ZyjdF8FuY2-7" value="" style="rounded=0;whiteSpace=wrap;html=1;direction=south;" vertex="1" parent="1">
          <mxGeometry x="324" y="530" width="180" height="480" as="geometry" />
        </mxCell>
        <mxCell id="qX0B5N5q_6ZyjdF8FuY2-9" value="登录" style="text;html=1;strokeColor=none;fillColor=none;align=center;verticalAlign=middle;whiteSpace=wrap;rounded=0;" vertex="1" parent="1">
          <mxGeometry x="240" y="630" width="60" height="30" as="geometry" />
        </mxCell>
        <mxCell id="qX0B5N5q_6ZyjdF8FuY2-10" value="" style="endArrow=classic;html=1;rounded=0;exitX=0.737;exitY=-0.002;exitDx=0;exitDy=0;exitPerimeter=0;" edge="1" parent="1" source="qX0B5N5q_6ZyjdF8FuY2-2">
          <mxGeometry width="50" height="50" relative="1" as="geometry">
            <mxPoint x="390" y="810" as="sourcePoint" />
            <mxPoint x="330" y="884" as="targetPoint" />
          </mxGeometry>
        </mxCell>
        <mxCell id="qX0B5N5q_6ZyjdF8FuY2-11" value="信息管理" style="text;html=1;strokeColor=none;fillColor=none;align=center;verticalAlign=middle;whiteSpace=wrap;rounded=0;" vertex="1" parent="1">
          <mxGeometry x="240" y="860" width="60" height="30" as="geometry" />
        </mxCell>
        <mxCell id="qX0B5N5q_6ZyjdF8FuY2-12" value="系统边界" style="text;html=1;strokeColor=none;fillColor=none;align=center;verticalAlign=middle;whiteSpace=wrap;rounded=0;" vertex="1" parent="1">
          <mxGeometry x="384" y="500" width="60" height="30" as="geometry" />
        </mxCell>
        <mxCell id="qX0B5N5q_6ZyjdF8FuY2-13" value="信息展示边界" style="rounded=0;whiteSpace=wrap;html=1;" vertex="1" parent="1">
          <mxGeometry x="360" y="670" width="120" height="60" as="geometry" />
        </mxCell>
        <mxCell id="qX0B5N5q_6ZyjdF8FuY2-14" value="" style="rounded=0;whiteSpace=wrap;html=1;direction=south;" vertex="1" parent="1">
          <mxGeometry x="600" y="520" width="180" height="480" as="geometry" />
        </mxCell>
        <mxCell id="qX0B5N5q_6ZyjdF8FuY2-15" value="管理员边界" style="text;html=1;strokeColor=none;fillColor=none;align=center;verticalAlign=middle;whiteSpace=wrap;rounded=0;" vertex="1" parent="1">
          <mxGeometry x="670" y="490" width="60" height="30" as="geometry" />
        </mxCell>
        <mxCell id="qX0B5N5q_6ZyjdF8FuY2-16" value="班级管理边界" style="rounded=0;whiteSpace=wrap;html=1;" vertex="1" parent="1">
          <mxGeometry x="616" y="660" width="120" height="60" as="geometry" />
        </mxCell>
        <mxCell id="qX0B5N5q_6ZyjdF8FuY2-17" value="年级管理边界" style="rounded=0;whiteSpace=wrap;html=1;" vertex="1" parent="1">
          <mxGeometry x="616" y="790" width="120" height="60" as="geometry" />
        </mxCell>
        <mxCell id="qX0B5N5q_6ZyjdF8FuY2-19" value="" style="endArrow=classic;html=1;rounded=0;entryX=0.25;entryY=0;entryDx=0;entryDy=0;" edge="1" parent="1" target="qX0B5N5q_6ZyjdF8FuY2-7">
          <mxGeometry width="50" height="50" relative="1" as="geometry">
            <mxPoint x="601" y="649" as="sourcePoint" />
            <mxPoint x="650" y="610" as="targetPoint" />
          </mxGeometry>
        </mxCell>
        <mxCell id="qX0B5N5q_6ZyjdF8FuY2-20" value="" style="endArrow=classic;html=1;rounded=0;entryX=0.771;entryY=0.022;entryDx=0;entryDy=0;entryPerimeter=0;" edge="1" parent="1" target="qX0B5N5q_6ZyjdF8FuY2-7">
          <mxGeometry width="50" height="50" relative="1" as="geometry">
            <mxPoint x="600" y="900" as="sourcePoint" />
            <mxPoint x="650" y="850" as="targetPoint" />
          </mxGeometry>
        </mxCell>
        <mxCell id="qX0B5N5q_6ZyjdF8FuY2-21" value="增删改查" style="text;html=1;strokeColor=none;fillColor=none;align=center;verticalAlign=middle;whiteSpace=wrap;rounded=0;" vertex="1" parent="1">
          <mxGeometry x="530" y="620" width="60" height="30" as="geometry" />
        </mxCell>
        <mxCell id="qX0B5N5q_6ZyjdF8FuY2-22" value="登录" style="text;html=1;strokeColor=none;fillColor=none;align=center;verticalAlign=middle;whiteSpace=wrap;rounded=0;" vertex="1" parent="1">
          <mxGeometry x="520" y="870" width="60" height="30" as="geometry" />
        </mxCell>
      </root>
    </mxGraphModel>
  </diagram>
</mxfile>
